<?xml version="1.0" standalone="no"?>
<!DOCTYPE svg PUBLIC "-//W3C//DTD SVG 20010904//EN"
 "http://www.w3.org/TR/2001/REC-SVG-20010904/DTD/svg10.dtd">
<svg version="1.0" xmlns="http://www.w3.org/2000/svg"
 width="396.000000pt" height="396.000000pt" viewBox="0 0 396.000000 396.000000"
 preserveAspectRatio="xMidYMid meet">
<metadata>
Created by potrace 1.11, written by Peter Selinger 2001-2013
</metadata>
<g transform="translate(0.000000,396.000000) scale(0.100000,-0.100000)"
fill="#000000" stroke="none">
<path d="M1601 3834 c-769 -109 -1394 -692 -1562 -1459 -29 -132 -34 -189 -34
-410 1 -300 45 -505 164 -769 154 -339 473 -683 784 -844 27 -15 54 -36 60
-49 7 -16 14 -20 22 -13 9 7 37 0 93 -24 137 -59 282 -101 447 -130 115 -21
376 -27 505 -12 51 6 243 45 295 59 307 88 579 247 804 469 195 193 337 410
436 667 37 95 90 293 99 371 3 25 9 70 13 100 8 69 9 305 0 385 -5 52 -21 147
-42 250 -15 73 -90 277 -139 379 -30 61 -84 155 -120 210 -74 110 -74 97 0
170 160 157 340 321 498 453 37 31 38 34 23 55 -62 93 -167 130 -268 94 -47
-17 -294 -187 -490 -338 -42 -32 -79 -58 -83 -58 -5 0 -28 18 -53 39 -63 57
-224 162 -323 213 -187 97 -392 162 -604 193 -130 19 -387 18 -525 -1z"/>
</g>
</svg>
